<?xml version="1.0" encoding="UTF-8"?>
<!DOCTYPE svg PUBLIC "-//W3C//DTD SVG 1.1//EN" "http://www.w3.org/Graphics/SVG/1.1/DTD/svg11.dtd">
<svg xmlns="http://www.w3.org/2000/svg" xmlns:xlink="http://www.w3.org/1999/xlink" version="1.1" width="232px" height="301px" viewBox="-0.5 -0.5 232 301"><defs/><g><rect x="0" y="0" width="60" height="20" fill="rgb(255, 255, 255)" stroke="rgb(0, 0, 0)" pointer-events="all"/><path d="M 30 20 L 30 300" fill="none" stroke="rgb(0, 0, 0)" stroke-miterlimit="10" stroke-dasharray="3 3" pointer-events="all"/><g fill="rgb(0, 0, 0)" font-family="Helvetica" text-anchor="middle" font-size="12px"><text x="29.5" y="14.5">Client</text></g><rect x="170" y="0" width="60" height="20" fill="rgb(255, 255, 255)" stroke="rgb(0, 0, 0)" pointer-events="all"/><path d="M 200 20 L 200 300" fill="none" stroke="rgb(0, 0, 0)" stroke-miterlimit="10" stroke-dasharray="3 3" pointer-events="all"/><g fill="rgb(0, 0, 0)" font-family="Helvetica" text-anchor="middle" font-size="12px"><text x="199.5" y="14.5">Server</text></g><path d="M 199.5 270 L 150 270 Q 140 270 130 270 L 31.9 270" fill="none" stroke="rgb(0, 0, 0)" stroke-miterlimit="10" stroke-dasharray="3 3" pointer-events="stroke"/><path d="M 39.78 265.5 L 30.78 270 L 39.78 274.5" fill="none" stroke="rgb(0, 0, 0)" stroke-miterlimit="10" pointer-events="all"/><g fill="rgb(0, 0, 0)" font-family="Helvetica" text-anchor="middle" font-size="11px"><rect fill="rgb(255, 255, 255)" stroke="none" x="52" y="255" width="126" height="14" stroke-width="0"/><text x="114" y="264.5">[6] response (net join, ok)</text></g><path d="M 29.67 220 L 130 220 Q 140 220 150 220 L 191.38 220" fill="none" stroke="rgb(0, 0, 0)" stroke-miterlimit="10" pointer-events="stroke"/><path d="M 198.38 220 L 191.38 223.5 L 191.38 216.5 Z" fill="rgb(0, 0, 0)" stroke="rgb(0, 0, 0)" stroke-miterlimit="10" pointer-events="all"/><g fill="rgb(0, 0, 0)" font-family="Helvetica" text-anchor="middle" font-size="11px"><rect fill="rgb(255, 255, 255)" stroke="none" x="89" y="205" width="53" height="14" stroke-width="0"/><text x="114.17" y="214.5">[2] net join</text></g><path d="M 199.5 70 L 170 70 Q 160 70 150 70 L 37.78 70" fill="none" stroke="rgb(0, 0, 0)" stroke-miterlimit="10" pointer-events="stroke"/><path d="M 30.78 70 L 37.78 66.5 L 37.78 73.5 Z" fill="rgb(0, 0, 0)" stroke="rgb(0, 0, 0)" stroke-miterlimit="10" pointer-events="all"/><g fill="rgb(0, 0, 0)" font-family="Helvetica" text-anchor="middle" font-size="11px"><rect fill="rgb(255, 255, 255)" stroke="none" x="96" y="54" width="38" height="14" stroke-width="0"/><text x="114" y="64.5">[4] ping</text></g><path d="M 29.67 90 L 130 90 Q 140 90 150 90 L 197.26 90" fill="none" stroke="rgb(0, 0, 0)" stroke-miterlimit="10" stroke-dasharray="3 3" pointer-events="stroke"/><path d="M 189.38 94.5 L 198.38 90 L 189.38 85.5" fill="none" stroke="rgb(0, 0, 0)" stroke-miterlimit="10" pointer-events="all"/><g fill="rgb(0, 0, 0)" font-family="Helvetica" text-anchor="middle" font-size="11px"><rect fill="rgb(255, 255, 255)" stroke="none" x="60" y="74" width="111" height="14" stroke-width="0"/><text x="114.17" y="84.5">[0] response (ping, ok)</text></g><path d="M 29.67 140 L 130 140 Q 140 140 150 140 L 191.38 140" fill="none" stroke="rgb(0, 0, 0)" stroke-miterlimit="10" pointer-events="stroke"/><path d="M 198.38 140 L 191.38 143.5 L 191.38 136.5 Z" fill="rgb(0, 0, 0)" stroke="rgb(0, 0, 0)" stroke-miterlimit="10" pointer-events="all"/><g fill="rgb(0, 0, 0)" font-family="Helvetica" text-anchor="middle" font-size="11px"><rect fill="rgb(255, 255, 255)" stroke="none" x="85" y="125" width="60" height="14" stroke-width="0"/><text x="114.17" y="134.5">[1] get node</text></g><path d="M 199.5 170 L 160 170 Q 150 170 140 170 L 31.9 170" fill="none" stroke="rgb(0, 0, 0)" stroke-miterlimit="10" stroke-dasharray="3 3" pointer-events="stroke"/><path d="M 39.78 165.5 L 30.78 170 L 39.78 174.5" fill="none" stroke="rgb(0, 0, 0)" stroke-miterlimit="10" pointer-events="all"/><g fill="rgb(0, 0, 0)" font-family="Helvetica" text-anchor="middle" font-size="11px"><rect fill="rgb(255, 255, 255)" stroke="none" x="49" y="155" width="133" height="14" stroke-width="0"/><text x="114" y="164.5">[5] response (get node, ok)</text></g></g></svg>